<svg xmlns="http://www.w3.org/2000/svg" viewBox="0 0 240 180" role="img" aria-label="Empty state — lancez votre première simulation">
  <defs>
    <filter id="sh" x="-20%" y="-20%" width="140%" height="140%">
      <feDropShadow dx="0" dy="4" stdDeviation="6" flood-color="#1A2B48" flood-opacity="0.08"></feDropShadow>
    </filter>
  </defs>
  
  <rect x="42" y="44" width="156" height="100" rx="8" fill="#FFFFFF" stroke="#D6D3D1" filter="url(#sh)"></rect>
  
  <rect x="42" y="44" width="156" height="20" rx="8" fill="#F0F4FA"></rect>
  <rect x="42" y="56" width="156" height="8" fill="#F0F4FA"></rect>
  <circle cx="54" cy="54" r="2.5" fill="#A8A29E"></circle>
  <circle cx="62" cy="54" r="2.5" fill="#A8A29E"></circle>
  <circle cx="70" cy="54" r="2.5" fill="#A8A29E"></circle>
  
  <rect x="54" y="76" width="80" height="6" rx="3" fill="#E7E5E4"></rect>
  <rect x="54" y="90" width="132" height="4" rx="2" fill="#E7E5E4"></rect>
  <rect x="54" y="100" width="110" height="4" rx="2" fill="#E7E5E4"></rect>
  <rect x="54" y="120" width="58" height="14" rx="4" fill="#EE7A3A"></rect>
  
  <circle cx="180" cy="60" r="18" fill="#EE7A3A"></circle>
  <polygon points="175,52 175,68 188,60" fill="#FFFFFF"></polygon>
  
  <g stroke="#EE7A3A" stroke-width="1.5" fill="none" opacity=".5">
    <path d="M 20 30 Q 60 10 100 40"></path>
  </g>
  <circle cx="20" cy="30" r="4" fill="#EE7A3A" opacity=".6"></circle>
  <circle cx="220" cy="160" r="4" fill="#1A2B48" opacity=".5"></circle>
</svg>