<svg xmlns="http://www.w3.org/2000/svg" viewBox="0 0 600 340" role="img" aria-label="Pragma360 hero geometric">
  <defs>
    <radialGradient id="g1" cx="25%" cy="30%" r="70%">
      <stop offset="0%" stop-color="#EE7A3A" stop-opacity=".45"></stop>
      <stop offset="60%" stop-color="#EE7A3A" stop-opacity="0"></stop>
    </radialGradient>
    <radialGradient id="g2" cx="85%" cy="90%" r="60%">
      <stop offset="0%" stop-color="#3D5478" stop-opacity=".6"></stop>
      <stop offset="100%" stop-color="#3D5478" stop-opacity="0"></stop>
    </radialGradient>
  </defs>
  <rect width="600" height="340" fill="#1A2B48"></rect>
  <rect width="600" height="340" fill="url(#g1)"></rect>
  <rect width="600" height="340" fill="url(#g2)"></rect>
  
  <g fill="#FFFFFF" opacity=".12">
    <circle cx="60" cy="60" r="1.5"></circle><circle cx="120" cy="60" r="1.5"></circle><circle cx="180" cy="60" r="1.5"></circle><circle cx="240" cy="60" r="1.5"></circle><circle cx="300" cy="60" r="1.5"></circle><circle cx="360" cy="60" r="1.5"></circle><circle cx="420" cy="60" r="1.5"></circle><circle cx="480" cy="60" r="1.5"></circle><circle cx="540" cy="60" r="1.5"></circle>
    <circle cx="60" cy="120" r="1.5"></circle><circle cx="120" cy="120" r="1.5"></circle><circle cx="180" cy="120" r="1.5"></circle><circle cx="240" cy="120" r="1.5"></circle><circle cx="300" cy="120" r="1.5"></circle><circle cx="360" cy="120" r="1.5"></circle><circle cx="420" cy="120" r="1.5"></circle><circle cx="480" cy="120" r="1.5"></circle><circle cx="540" cy="120" r="1.5"></circle>
    <circle cx="60" cy="180" r="1.5"></circle><circle cx="120" cy="180" r="1.5"></circle><circle cx="180" cy="180" r="1.5"></circle><circle cx="240" cy="180" r="1.5"></circle><circle cx="300" cy="180" r="1.5"></circle><circle cx="360" cy="180" r="1.5"></circle><circle cx="420" cy="180" r="1.5"></circle><circle cx="480" cy="180" r="1.5"></circle><circle cx="540" cy="180" r="1.5"></circle>
    <circle cx="60" cy="240" r="1.5"></circle><circle cx="120" cy="240" r="1.5"></circle><circle cx="180" cy="240" r="1.5"></circle><circle cx="240" cy="240" r="1.5"></circle><circle cx="300" cy="240" r="1.5"></circle><circle cx="360" cy="240" r="1.5"></circle><circle cx="420" cy="240" r="1.5"></circle><circle cx="480" cy="240" r="1.5"></circle><circle cx="540" cy="240" r="1.5"></circle>
    <circle cx="60" cy="300" r="1.5"></circle><circle cx="120" cy="300" r="1.5"></circle><circle cx="180" cy="300" r="1.5"></circle><circle cx="240" cy="300" r="1.5"></circle><circle cx="300" cy="300" r="1.5"></circle><circle cx="360" cy="300" r="1.5"></circle><circle cx="420" cy="300" r="1.5"></circle><circle cx="480" cy="300" r="1.5"></circle><circle cx="540" cy="300" r="1.5"></circle>
  </g>
  
  <g fill="none" stroke="#EE7A3A" stroke-width="1.75" opacity=".85">
    <path d="M 90 170 Q 220 80 360 170 T 540 150"></path>
    <path d="M 90 200 Q 220 280 360 200 T 540 220" opacity=".6"></path>
  </g>
  
  <g>
    <circle cx="90" cy="170" r="7" fill="#EE7A3A"></circle>
    <circle cx="225" cy="130" r="6" fill="#F59763"></circle>
    <circle cx="360" cy="170" r="9" fill="#EE7A3A"></circle>
    <circle cx="225" cy="230" r="6" fill="#F59763" opacity=".7"></circle>
    <circle cx="540" cy="150" r="7" fill="#FFFFFF"></circle>
  </g>
  
  <circle cx="360" cy="170" r="18" fill="none" stroke="#EE7A3A" stroke-width="1" opacity=".4"></circle>
  <circle cx="360" cy="170" r="30" fill="none" stroke="#EE7A3A" stroke-width="1" opacity=".2"></circle>
</svg>